<?xml version="1.0" encoding="UTF-8" standalone="no"?>
<svg
   width="600"
   zoomAndPan="magnify"
   viewBox="0 0 450 449.99999"
   height="600"
   preserveAspectRatio="xMidYMid"
   version="1.0"
   id="svg78"
   xmlns="http://www.w3.org/2000/svg"
   xmlns:svg="http://www.w3.org/2000/svg">
  <defs
     id="defs23">
    <clipPath
       id="3b75357152">
      <path
         d="M 0.679688,0.519531 H 317 V 241.48047 H 0.679688 Z m 0,0"
         clip-rule="nonzero"
         id="path2" />
    </clipPath>
    <clipPath
       id="c263c8f9c8">
      <rect
         x="0"
         width="317"
         y="0"
         height="242"
         id="rect2" />
    </clipPath>
    <clipPath
       id="da0b74d854">
      <path
         d="M 15.769531,17.582031 H 39.910156 V 67.09375 H 15.769531 Z m 0,0"
         clip-rule="nonzero"
         id="path3" />
    </clipPath>
    <clipPath
       id="ffc96a6937">
      <path
         d="m 18.019531,17.582031 h 19.640625 c 1.242188,0 2.25,1.007813 2.25,2.25 v 44.964844 c 0,1.246094 -1.007812,2.25 -2.25,2.25 H 18.019531 c -1.242187,0 -2.25,-1.003906 -2.25,-2.25 V 19.832031 c 0,-1.242187 1.007813,-2.25 2.25,-2.25 z m 0,0"
         clip-rule="nonzero"
         id="path4" />
    </clipPath>
    <clipPath
       id="51356ca909">
      <path
         d="M 0.769531,0.582031 H 24.910156 V 50.09375 H 0.769531 Z m 0,0"
         clip-rule="nonzero"
         id="path5" />
    </clipPath>
    <clipPath
       id="d735465725">
      <path
         d="m 3.019531,0.582031 h 19.640625 c 1.242188,0 2.25,1.007813 2.25,2.25 v 44.964844 c 0,1.246094 -1.007812,2.25 -2.25,2.25 H 3.019531 c -1.242187,0 -2.25,-1.003906 -2.25,-2.25 V 2.832031 c 0,-1.242187 1.007813,-2.25 2.25,-2.25 z m 0,0"
         clip-rule="nonzero"
         id="path6" />
    </clipPath>
    <clipPath
       id="caf2aef698">
      <rect
         x="0"
         width="25"
         y="0"
         height="51"
         id="rect6" />
    </clipPath>
    <clipPath
       id="ae6d106678">
      <path
         d="M 48.4375,3.542969 H 72.578125 V 81.15625 H 48.4375 Z m 0,0"
         clip-rule="nonzero"
         id="path7" />
    </clipPath>
    <clipPath
       id="ccce9a5686">
      <path
         d="m 50.6875,3.542969 h 19.640625 c 1.242187,0 2.25,1.007812 2.25,2.25 v 73.042969 c 0,1.246093 -1.007813,2.25 -2.25,2.25 H 50.6875 c -1.242188,0 -2.25,-1.003907 -2.25,-2.25 V 5.792969 c 0,-1.242188 1.007812,-2.25 2.25,-2.25 z m 0,0"
         clip-rule="nonzero"
         id="path8" />
    </clipPath>
    <clipPath
       id="849dcf2cd5">
      <path
         d="M 0.4375,0.542969 H 24.578125 V 78.15625 H 0.4375 Z m 0,0"
         clip-rule="nonzero"
         id="path9" />
    </clipPath>
    <clipPath
       id="c0d2e11f2a">
      <path
         d="m 2.6875,0.542969 h 19.640625 c 1.242187,0 2.25,1.007812 2.25,2.25 v 73.042969 c 0,1.246093 -1.007813,2.25 -2.25,2.25 H 2.6875 c -1.242188,0 -2.25,-1.003907 -2.25,-2.25 V 2.792969 c 0,-1.242188 1.007812,-2.25 2.25,-2.25 z m 0,0"
         clip-rule="nonzero"
         id="path10" />
    </clipPath>
    <clipPath
       id="f35109e14d">
      <rect
         x="0"
         width="25"
         y="0"
         height="79"
         id="rect10" />
    </clipPath>
    <clipPath
       id="176991190e">
      <path
         d="m 292.98047,17.535156 h 24.14062 v 49.507813 h -24.14062 z m 0,0"
         clip-rule="nonzero"
         id="path11" />
    </clipPath>
    <clipPath
       id="5bdf2f05aa">
      <path
         d="m 314.87109,67.042969 h -19.64062 c -1.24219,0 -2.25,-1.007813 -2.25,-2.25 V 19.828125 c 0,-1.242187 1.00781,-2.25 2.25,-2.25 h 19.64062 c 1.2461,0 2.25,1.007813 2.25,2.25 v 44.964844 c 0,1.242187 -1.0039,2.25 -2.25,2.25 z m 0,0"
         clip-rule="nonzero"
         id="path12" />
    </clipPath>
    <clipPath
       id="1af15644a6">
      <path
         d="M 0.980469,0.558594 H 25.121094 V 50.042969 H 0.980469 Z m 0,0"
         clip-rule="nonzero"
         id="path13" />
    </clipPath>
    <clipPath
       id="2b10d204aa">
      <path
         d="M 22.871094,50.042969 H 3.230469 c -1.242188,0 -2.25,-1.007813 -2.25,-2.25 V 2.828125 c 0,-1.242187 1.007812,-2.25 2.25,-2.25 h 19.640625 c 1.246094,0 2.25,1.007813 2.25,2.25 v 44.964844 c 0,1.242187 -1.003906,2.25 -2.25,2.25 z m 0,0"
         clip-rule="nonzero"
         id="path14" />
    </clipPath>
    <clipPath
       id="40ea4f1089">
      <rect
         x="0"
         width="26"
         y="0"
         height="51"
         id="rect14" />
    </clipPath>
    <clipPath
       id="bc38bb6617">
      <path
         d="m 260.3125,3.464844 h 24.14453 V 81.078125 H 260.3125 Z m 0,0"
         clip-rule="nonzero"
         id="path15" />
    </clipPath>
    <clipPath
       id="cbbc56f255">
      <path
         d="M 282.20703,81.078125 H 262.5625 c -1.24219,0 -2.25,-1.007813 -2.25,-2.25 V 5.78125 c 0,-1.242188 1.00781,-2.25 2.25,-2.25 h 19.64453 c 1.24219,0 2.25,1.007812 2.25,2.25 v 73.046875 c 0,1.242187 -1.00781,2.25 -2.25,2.25 z m 0,0"
         clip-rule="nonzero"
         id="path16" />
    </clipPath>
    <clipPath
       id="4015052457">
      <path
         d="M 0.3125,0.464844 H 24.457031 V 78.078125 H 0.3125 Z m 0,0"
         clip-rule="nonzero"
         id="path17" />
    </clipPath>
    <clipPath
       id="be55eb305d">
      <path
         d="M 22.207031,78.078125 H 2.5625 c -1.242188,0 -2.25,-1.007813 -2.25,-2.25 V 2.78125 c 0,-1.242188 1.007812,-2.25 2.25,-2.25 h 19.644531 c 1.242188,0 2.25,1.007812 2.25,2.25 v 73.046875 c 0,1.242187 -1.007812,2.25 -2.25,2.25 z m 0,0"
         clip-rule="nonzero"
         id="path18" />
    </clipPath>
    <clipPath
       id="0fd7ce275b">
      <rect
         x="0"
         width="25"
         y="0"
         height="79"
         id="rect18" />
    </clipPath>
    <clipPath
       id="e5a0d99fd3">
      <path
         d="M 81.011719,22.921875 H 251.78906 V 61.6875 H 81.011719 Z m 0,0"
         clip-rule="nonzero"
         id="path19" />
    </clipPath>
    <clipPath
       id="bc87c101cb">
      <path
         d="m 165.80078,54.269531 c -28.66016,6.347657 -56.67969,12.582031 -84.699218,0.488281 V 31.5625 c 28.984378,11.71875 57.968748,5.125 85.988278,-1.222656 28.66016,-6.347656 56.67969,-12.582032 84.69922,-0.488282 v 23.199219 c -28.98437,-11.722656 -57.96875,-5.128906 -85.98828,1.21875 z m 0,0"
         clip-rule="nonzero"
         id="path20" />
    </clipPath>
    <clipPath
       id="6a966cc106">
      <path
         d="M 0.078125,0.921875 H 170.78906 V 39.6875 H 0.078125 Z m 0,0"
         clip-rule="nonzero"
         id="path21" />
    </clipPath>
    <clipPath
       id="de29ef1cac">
      <path
         d="M 84.800781,32.269531 C 56.140625,38.617188 28.121094,44.851562 0.101562,32.757812 V 9.5625 C 29.085938,21.28125 58.070312,14.6875 86.089844,8.339844 114.75,1.992188 142.76953,-4.242188 170.78906,7.851562 v 23.199219 c -28.98437,-11.722656 -57.96875,-5.128906 -85.988279,1.21875 z m 0,0"
         clip-rule="nonzero"
         id="path22" />
    </clipPath>
    <clipPath
       id="e023955f40">
      <rect
         x="0"
         width="171"
         y="0"
         height="40"
         id="rect22" />
    </clipPath>
    <clipPath
       id="c88315be70">
      <rect
         x="0"
         width="318"
         y="0"
         height="242"
         id="rect23" />
    </clipPath>
  </defs>
  <g
     transform="translate(62.5,126.5)"
     id="g78">
    <g
       clip-path="url(#c88315be70)"
       id="g77">
      <g
         clip-path="url(#3b75357152)"
         id="g46">
        <g
           id="g45">
          <g
             clip-path="url(#c263c8f9c8)"
             id="g44">
            <g
               fill="#f9faf8"
               fill-opacity="1"
               id="g31">
              <g
                 transform="translate(1.223071,173.24574)"
                 id="g30">
                <g
                   id="g29">
                  <path
                     d="M 37.25,0 C 30.082031,0 24.476562,-2.039062 20.4375,-6.125 16.40625,-10.21875 14.390625,-15.75 14.390625,-22.71875 v -73.890625 h 23.625 v 72.53125 c 0,1.210937 0.425781,2.246094 1.28125,3.109375 0.851563,0.855469 1.890625,1.28125 3.109375,1.28125 H 59.359375 V 0 Z M 1.671875,-58.453125 V -77.6875 h 57.6875 v 19.234375 z m 0,0"
                     id="path28" />
                </g>
              </g>
            </g>
            <g
               fill="#f9faf8"
               fill-opacity="1"
               id="g34">
              <g
                 transform="translate(58.61144,173.24574)"
                 id="g33">
                <g
                   id="g32">
                  <path
                     d="m 8.171875,0 v -54.828125 c 0,-7.0625 2.019531,-12.609375 6.0625,-16.640625 4.039063,-4.039062 9.644531,-6.0625 16.8125,-6.0625 h 22.5625 v 19.078125 h -16.8125 c -1.417969,0 -2.632813,0.480469 -3.640625,1.4375 -1,0.960937 -1.5,2.195313 -1.5,3.703125 V 0 Z m 0,0"
                     id="path31" />
                </g>
              </g>
            </g>
            <g
               fill="#f9faf8"
               fill-opacity="1"
               id="g37">
              <g
                 transform="translate(106.30878,173.24574)"
                 id="g36">
                <g
                   id="g35">
                  <path
                     d="M 39.984375,1.8125 C 33.117188,1.8125 27.0625,0.046875 21.8125,-3.484375 16.5625,-7.015625 12.472656,-11.78125 9.546875,-17.78125 6.617188,-23.789062 5.15625,-30.582031 5.15625,-38.15625 c 0,-7.875 1.710938,-14.914062 5.140625,-21.125 3.4375,-6.207031 8.304687,-11.128906 14.609375,-14.765625 C 31.21875,-77.679688 38.664062,-79.5 47.25,-79.5 c 8.675781,0 16.066406,1.792969 22.171875,5.375 6.113281,3.585938 10.8125,8.480469 14.09375,14.6875 3.28125,6.210938 4.921875,13.152344 4.921875,20.828125 V 0 H 65.421875 V -12.421875 H 64.8125 C 63.394531,-9.691406 61.578125,-7.238281 59.359375,-5.0625 57.140625,-2.894531 54.4375,-1.207031 51.25,0 48.070312,1.207031 44.316406,1.8125 39.984375,1.8125 Z m 6.96875,-20.28125 c 3.53125,0 6.628906,-0.882812 9.296875,-2.65625 2.675781,-1.769531 4.722656,-4.21875 6.140625,-7.34375 1.414063,-3.132812 2.125,-6.617188 2.125,-10.453125 0,-3.726563 -0.710937,-7.109375 -2.125,-10.140625 -1.417969,-3.03125 -3.464844,-5.425781 -6.140625,-7.1875 -2.667969,-1.769531 -5.765625,-2.65625 -9.296875,-2.65625 -3.636719,0 -6.820313,0.886719 -9.546875,2.65625 -2.730469,1.761719 -4.804688,4.15625 -6.21875,7.1875 -1.40625,3.03125 -2.109375,6.414062 -2.109375,10.140625 0,3.835937 0.703125,7.320313 2.109375,10.453125 1.414062,3.125 3.488281,5.574219 6.21875,7.34375 2.726562,1.773438 5.910156,2.65625 9.546875,2.65625 z m 0,0"
                     id="path34" />
                </g>
              </g>
            </g>
            <g
               fill="#f9faf8"
               fill-opacity="1"
               id="g40">
              <g
                 transform="translate(195.79868,173.24574)"
                 id="g39">
                <g
                   id="g38">
                  <path
                     d="m 8.78125,0 v -77.6875 h 23.625 V 0 Z m 11.8125,-86.46875 c -3.742188,0 -6.976562,-1.363281 -9.703125,-4.09375 -2.71875,-2.726562 -4.078125,-5.957031 -4.078125,-9.6875 0,-3.73828 1.359375,-6.99219 4.078125,-9.76563 2.726563,-2.78125 5.960937,-4.17187 9.703125,-4.17187 3.726562,0 6.957031,1.39062 9.6875,4.17187 2.726562,2.77344 4.09375,6.02735 4.09375,9.76563 0,3.730469 -1.367188,6.960938 -4.09375,9.6875 -2.730469,2.730469 -5.960938,4.09375 -9.6875,4.09375 z m 0,0"
                     id="path37" />
                </g>
              </g>
            </g>
            <g
               fill="#f9faf8"
               fill-opacity="1"
               id="g43">
              <g
                 transform="translate(229.1109,173.24574)"
                 id="g42">
                <g
                   id="g41">
                  <path
                     d="m 8.78125,0 v -44.671875 c 0,-6.457031 1.5625,-12.3125 4.6875,-17.5625 3.132812,-5.25 7.601562,-9.4375 13.40625,-12.5625 C 32.6875,-77.929688 39.578125,-79.5 47.546875,-79.5 c 8.082031,0 14.972656,1.570312 20.671875,4.703125 5.707031,3.125 10.070312,7.3125 13.09375,12.5625 3.03125,5.25 4.546875,11.105469 4.546875,17.5625 V 0 h -23.46875 v -44.0625 c 0,-2.726562 -0.65625,-5.226562 -1.96875,-7.5 -1.3125,-2.269531 -3.105469,-4.085938 -5.375,-5.453125 -2.273437,-1.363281 -4.820313,-2.046875 -7.640625,-2.046875 -2.929688,0 -5.53125,0.683594 -7.8125,2.046875 -2.273438,1.367187 -4.0625,3.183594 -5.375,5.453125 -1.3125,2.273438 -1.96875,4.773438 -1.96875,7.5 V 0 Z m 0,0"
                     id="path40" />
                </g>
              </g>
            </g>
          </g>
        </g>
      </g>
      <g
         clip-path="url(#da0b74d854)"
         id="g52">
        <g
           clip-path="url(#ffc96a6937)"
           id="g51">
          <g
             transform="translate(15,17)"
             id="g50">
            <g
               clip-path="url(#caf2aef698)"
               id="g49">
              <g
                 clip-path="url(#51356ca909)"
                 id="g48">
                <g
                   clip-path="url(#d735465725)"
                   id="g47">
                  <path
                     fill="#f0aa3e"
                     d="M 0.769531,0.582031 H 24.910156 V 50.09375 H 0.769531 Z m 0,0"
                     fill-opacity="1"
                     fill-rule="nonzero"
                     id="path46" />
                </g>
              </g>
            </g>
          </g>
        </g>
      </g>
      <g
         clip-path="url(#ae6d106678)"
         id="g58">
        <g
           clip-path="url(#ccce9a5686)"
           id="g57">
          <g
             transform="translate(48,3)"
             id="g56">
            <g
               clip-path="url(#f35109e14d)"
               id="g55">
              <g
                 clip-path="url(#849dcf2cd5)"
                 id="g54">
                <g
                   clip-path="url(#c0d2e11f2a)"
                   id="g53">
                  <path
                     fill="#ffffff"
                     d="M 0.4375,0.542969 H 24.578125 V 78.0625 H 0.4375 Z m 0,0"
                     fill-opacity="1"
                     fill-rule="nonzero"
                     id="path52" />
                </g>
              </g>
            </g>
          </g>
        </g>
      </g>
      <g
         clip-path="url(#176991190e)"
         id="g64">
        <g
           clip-path="url(#5bdf2f05aa)"
           id="g63">
          <g
             transform="translate(292,17)"
             id="g62">
            <g
               clip-path="url(#40ea4f1089)"
               id="g61">
              <g
                 clip-path="url(#1af15644a6)"
                 id="g60">
                <g
                   clip-path="url(#2b10d204aa)"
                   id="g59">
                  <path
                     fill="#f0aa3e"
                     d="M 25.121094,50.042969 H 0.980469 V 0.535156 h 24.140625 z m 0,0"
                     fill-opacity="1"
                     fill-rule="nonzero"
                     id="path58" />
                </g>
              </g>
            </g>
          </g>
        </g>
      </g>
      <g
         clip-path="url(#bc38bb6617)"
         id="g70">
        <g
           clip-path="url(#cbbc56f255)"
           id="g69">
          <g
             transform="translate(260,3)"
             id="g68">
            <g
               clip-path="url(#0fd7ce275b)"
               id="g67">
              <g
                 clip-path="url(#4015052457)"
                 id="g66">
                <g
                   clip-path="url(#be55eb305d)"
                   id="g65">
                  <path
                     fill="#ffffff"
                     d="M 24.457031,78.078125 H 0.3125 V 0.558594 h 24.144531 z m 0,0"
                     fill-opacity="1"
                     fill-rule="nonzero"
                     id="path64" />
                </g>
              </g>
            </g>
          </g>
        </g>
      </g>
      <g
         clip-path="url(#e5a0d99fd3)"
         id="g76">
        <g
           clip-path="url(#bc87c101cb)"
           id="g75">
          <g
             transform="translate(81,22)"
             id="g74">
            <g
               clip-path="url(#e023955f40)"
               id="g73">
              <g
                 clip-path="url(#6a966cc106)"
                 id="g72">
                <g
                   clip-path="url(#de29ef1cac)"
                   id="g71">
                  <path
                     fill="#f0aa3e"
                     d="M 170.78906,39.839844 H 0.164062 V 0.769531 H 170.78906 Z m 0,0"
                     fill-opacity="1"
                     fill-rule="nonzero"
                     id="path70" />
                </g>
              </g>
            </g>
          </g>
        </g>
      </g>
    </g>
  </g>
</svg>
