<?xml version="1.0" encoding="UTF-8" standalone="no"?>
<svg width="317" height="242" viewBox="0 0 317 242" xmlns="http://www.w3.org/2000/svg">

  <!-- Orange Dumbbell Parts -->
  <g transform="translate(15,17)" fill="#f0aa3e">
    <path d="M 0.769531,0.582031 L 24.910156,0.582031 L 24.910156,50.09375 L 0.769531,50.09375 Z"/>
  </g>
  <g transform="translate(289.849181,17)" fill="#f0aa3e">
    <path d="M 25.121094,50.042969 L 0.980469,50.042969 L 0.980469,0.535156 L 25.121094,0.535156 Z"/>
  </g>
  <g transform="translate(78.849181,22)" fill="#f0aa3e">
    <path d="M 84.800781,32.269531 C 56.140625,38.617188 28.121094,44.851562 0.101562,32.757812 L 0.101562,9.5625 C 29.085938,21.28125 58.070312,14.6875 86.089844,8.339844 C 114.75,1.992188 142.76953,-4.242188 170.78906,7.851562 L 170.78906,31.050781 C 141.80469,19.328125 112.82031,25.921875 84.800781,32.269531 Z"/>
  </g>

  <!-- White Dumbbell Disks -->
  <g transform="translate(45.849181,3)" fill="#ffffff">
    <path d="M 0.4375,0.542969 L 24.578125,0.542969 L 24.578125,78.0625 L 0.4375,78.0625 Z"/>
  </g>
  <g transform="translate(257.849181,3)" fill="#ffffff">
    <path d="M 24.457031,78.078125 L 0.3125,78.078125 L 0.3125,0.558594 L 24.457031,0.558594 Z"/>
  </g>

  <!-- Text Letters -->
  <g transform="translate(1.223071,173.24574)" fill="#f9faf8">
    <path d="M 37.25,0 C 30.082031,0 24.476562,-2.039062 20.4375,-6.125 C 16.40625,-10.21875 14.390625,-15.75 14.390625,-22.71875 L 14.390625,-96.609375 L 38.015625,-96.609375 L 38.015625,-24.078125 C 38.015625,-22.867188 38.441406,-21.832031 39.296875,-20.96875 C 40.148438,-20.113281 41.1875,-19.6875 42.40625,-19.6875 L 59.359375,-19.6875 L 59.359375,0 Z M 1.671875,-58.453125 L 1.671875,-77.6875 L 59.359375,-77.6875 L 59.359375,-58.453125 Z"/>
  </g>

  <g transform="translate(58.61144,173.24574)" fill="#f9faf8">
    <path d="M 8.171875,0 L 8.171875,-54.828125 C 8.171875,-61.890625 10.191406,-67.4375 14.234375,-71.46875 C 18.273438,-75.507812 23.878906,-77.53125 31.046875,-77.53125 L 53.609375,-77.53125 L 53.609375,-58.453125 L 36.796875,-58.453125 C 35.378906,-58.453125 34.164062,-57.972656 33.15625,-57.015625 C 32.15625,-56.054688 31.65625,-54.820312 31.65625,-53.3125 L 31.65625,0 Z"/>
  </g>

  <!-- Letter a with centered hole (proper cutout using fill-rule) -->
  <g transform="translate(106.30878,173.24574)" fill="#f9faf8" fill-rule="evenodd">
    <path d="M 39.984375,1.8125 C 33.117188,1.8125 27.0625,0.046875 21.8125,-3.484375 C 16.5625,-7.015625 12.472656,-11.78125 9.546875,-17.78125 C 6.617188,-23.789062 5.15625,-30.582031 5.15625,-38.15625 C 5.15625,-46.03125 6.867188,-53.070312 10.296875,-59.28125 C 13.734375,-65.488281 18.601562,-70.410156 24.90625,-74.046875 C 31.21875,-77.679688 38.664062,-79.5 47.25,-79.5 C 55.925781,-79.5 63.316406,-77.707031 69.421875,-74.125 C 75.535156,-70.539062 80.234375,-65.644531 83.515625,-59.4375 C 86.796875,-53.226562 88.4375,-46.285156 88.4375,-38.609375 L 88.4375,0 L 65.421875,0 L 65.421875,-12.421875 L 64.8125,-12.421875 C 63.394531,-9.691406 61.578125,-7.238281 59.359375,-5.0625 C 57.140625,-2.894531 54.4375,-1.207031 51.25,0 C 48.070312,1.207031 44.316406,1.8125 39.984375,1.8125 Z M 46.953125,-20.28125 C 50.484375,-20.28125 53.582031,-21.164062 56.25,-22.9375 C 58.925781,-24.707031 60.972656,-27.15625 62.390625,-30.28125 C 63.804688,-33.414062 64.515625,-36.898438 64.515625,-40.734375 C 64.515625,-44.460938 63.804688,-47.84375 62.390625,-50.875 C 60.972656,-53.90625 58.925781,-56.300781 56.25,-58.0625 C 53.582031,-59.832031 50.484375,-60.71875 46.953125,-60.71875 C 43.316406,-60.71875 40.132812,-59.832031 37.40625,-58.0625 C 34.675781,-56.300781 32.601562,-53.90625 31.1875,-50.875 C 29.78125,-47.84375 29.078125,-44.460938 29.078125,-40.734375 C 29.078125,-36.898438 29.78125,-33.414062 31.1875,-30.28125 C 32.601562,-27.15625 34.675781,-24.707031 37.40625,-22.9375 C 40.132812,-21.164062 43.316406,-20.28125 46.953125,-20.28125 Z"/>
  </g>

  <!-- Letter i body -->
  <g transform="translate(195.79868,173.24574)" fill="#f9faf8">
    <path d="M 8.78125,0 L 8.78125,-77.6875 L 32.40625,-77.6875 L 32.40625,0 Z"/>
  </g>

  <!-- Letter i dot (perfect circle aligned with body dimensions) -->
  <g transform="translate(195.79868,173.24574)" fill="#f9faf8">
    <path d="M 20.59375,-112.140625 C 27.127539,-112.140625 32.40625,-106.861914 32.40625,-100.328125 C 32.40625,-93.794336 27.127539,-88.515625 20.59375,-88.515625 C 14.059961,-88.515625 8.78125,-93.794336 8.78125,-100.328125 C 8.78125,-106.861914 14.059961,-112.140625 20.59375,-112.140625 Z"/>
  </g>

  <g transform="translate(229.1109,173.24574)" fill="#f9faf8">
    <path d="M 8.78125,0 L 8.78125,-44.671875 C 8.78125,-51.128906 10.34375,-56.984375 13.46875,-62.234375 C 16.601562,-67.484375 21.070312,-71.671875 26.875,-74.796875 C 32.6875,-77.929688 39.578125,-79.5 47.546875,-79.5 C 55.628906,-79.5 62.519531,-77.929688 68.21875,-74.796875 C 73.925781,-71.671875 78.289062,-67.484375 81.3125,-62.234375 C 84.34375,-56.984375 85.859375,-51.128906 85.859375,-44.671875 L 85.859375,0 L 62.390625,0 L 62.390625,-44.0625 C 62.390625,-46.789062 61.734375,-49.289062 60.421875,-51.5625 C 59.109375,-53.832031 57.316406,-55.648438 55.046875,-57.015625 C 52.773438,-58.378906 50.226562,-59.0625 47.40625,-59.0625 C 44.476562,-59.0625 41.875,-58.378906 39.59375,-57.015625 C 37.320312,-55.648438 35.53125,-53.832031 34.21875,-51.5625 C 32.90625,-49.289062 32.25,-46.789062 32.25,-44.0625 L 32.25,0 Z"/>
  </g>

</svg>