<?xml version="1.0" standalone="no"?>
<!DOCTYPE svg PUBLIC "-//W3C//DTD SVG 20010904//EN"
 "http://www.w3.org/TR/2001/REC-SVG-20010904/DTD/svg10.dtd">
<svg version="1.0" xmlns="http://www.w3.org/2000/svg"
 width="1024.000000pt" height="1024.000000pt" viewBox="0 0 1024.000000 1024.000000"
 preserveAspectRatio="xMidYMid meet">

<g id="logo" transform="translate(0.000000,1024.000000) scale(0.100000,-0.100000)"
stroke="none">
<path d="M4133 6421 c-11 -11 -44 -84 -73 -163 -29 -78 -75 -204 -102 -278
-27 -74 -65 -175 -83 -225 -18 -49 -65 -175 -103 -280 -38 -104 -106 -289
-151 -410 -222 -602 -248 -680 -239 -692 15 -19 367 -18 392 0 11 8 50 105 96
238 l78 224 393 3 394 2 74 -222 c46 -143 80 -229 93 -240 18 -16 43 -18 203
-18 201 0 214 4 200 57 -3 16 -135 381 -292 813 -157 432 -318 873 -357 981
-39 108 -77 203 -85 212 -12 15 -40 17 -215 17 -185 0 -204 -2 -223 -19z m503
-1258 l6 -23 -297 0 c-279 0 -297 1 -290 18 16 36 169 474 226 647 33 99 63
187 66 195 4 12 266 -746 289 -837z"/>
<path d="M5490 6421 c-7 -13 -10 -342 -10 -1020 0 -988 0 -1001 20 -1021 18
-18 33 -20 179 -20 136 0 162 2 180 18 l21 17 -2 1020 -3 1020 -187 3 c-177 2
-188 1 -198 -17z"/>
<path d="M7882 6395 c-75 -23 -110 -52 -143 -115 -27 -51 -28 -137 -3 -199 9
-23 15 -43 13 -45 -20 -13 -295 -262 -409 -369 l-145 -136 -132 -1 -133 0 0
238 c0 219 -2 240 -18 255 -16 14 -43 17 -163 17 -100 0 -149 -4 -157 -12 -9
-9 -12 -198 -12 -790 0 -758 0 -778 19 -788 11 -5 82 -10 160 -10 183 0 171
-16 171 232 l0 188 150 0 150 0 165 -152 c143 -133 163 -154 151 -168 -50 -57
-66 -174 -32 -240 50 -98 146 -143 254 -119 133 28 207 191 144 315 -38 74
-115 124 -191 124 -24 0 -75 44 -318 273 l-104 97 -184 0 -185 0 0 65 0 65
391 0 391 0 49 -44 c135 -121 329 -57 371 123 21 94 -40 210 -131 249 -53 22
-138 19 -187 -6 -55 -28 -102 -83 -116 -138 l-12 -44 -378 0 -378 0 0 70 0 70
154 0 c85 0 165 4 178 9 26 10 10 -4 352 315 l257 239 57 -2 c111 -4 198 58
222 160 40 168 -111 323 -268 274z m98 -130 c36 -19 50 -43 50 -87 0 -71 -69
-114 -133 -83 -71 33 -76 126 -9 168 34 21 55 21 92 2z m-21 -941 c13 -9 29
-32 37 -50 30 -71 -39 -148 -110 -124 -48 15 -71 45 -71 90 0 76 85 125 144
84z m-208 -835 c14 -6 33 -23 43 -40 47 -80 -41 -177 -123 -135 -36 19 -51 44
-51 86 0 41 14 66 46 83 32 17 52 18 85 6z"/>
<path d="M1541 6114 c-19 -24 -21 -40 -21 -170 l0 -144 -79 0 c-58 0 -82 -4
-91 -15 -9 -11 -13 -57 -14 -148 l-1 -132 93 -3 92 -3 1 -362 c0 -199 3 -393
5 -430 6 -83 33 -160 79 -219 62 -82 234 -148 384 -148 76 0 241 26 255 40 12
12 22 226 12 266 -6 21 -9 22 -34 13 -15 -6 -74 -13 -132 -16 -94 -4 -108 -2
-138 17 -61 38 -63 49 -60 462 l3 373 167 5 c113 3 171 9 179 17 8 8 14 55 17
127 6 160 12 156 -203 156 l-165 0 0 170 0 170 -164 0 -165 0 -20 -26z"/>
<path d="M8336 6088 c-14 -20 -16 -115 -16 -823 l0 -802 23 -21 c21 -20 34
-22 135 -22 99 0 114 2 132 20 20 20 20 33 20 829 0 723 -2 811 -16 825 -12
13 -40 16 -139 16 -117 0 -125 -1 -139 -22z"/>
<path d="M8746 5838 c-14 -20 -16 -92 -16 -586 0 -563 2 -593 34 -614 6 -4 44
-8 84 -8 122 0 112 -57 112 613 0 502 -2 575 -16 595 -14 20 -24 22 -99 22
-75 0 -85 -2 -99 -22z"/>
<path d="M6243 5824 l-23 -23 0 -543 c0 -417 3 -549 13 -568 12 -23 18 -25
102 -28 82 -3 92 -1 108 19 16 20 17 62 17 569 0 641 11 586 -114 593 -73 4
-82 2 -103 -19z"/>
<path d="M3150 5804 c-89 -24 -193 -81 -253 -139 l-57 -54 0 95 0 94 -179 0
c-105 0 -182 -4 -186 -10 -11 -18 -5 -1403 6 -1417 9 -10 50 -13 170 -13 150
0 160 1 181 22 l21 21 -7 411 -6 411 25 52 c65 129 235 208 435 202 l65 -3 3
152 c2 141 1 153 -18 172 -25 25 -116 27 -200 4z"/>
</g>
</svg>
