<?xml version="1.0" encoding="UTF-8"?>
<svg version="1.1" xmlns="http://www.w3.org/2000/svg" width="625" height="625">
<path d="M0 0 C206.25 0 412.5 0 625 0 C625 206.25 625 412.5 625 625 C418.75 625 212.5 625 0 625 C0 418.75 0 212.5 0 0 Z " fill="#1E2B2E" transform="translate(0,0)"/>
<path d="M0 0 C1.52173828 0.52787109 1.52173828 0.52787109 3.07421875 1.06640625 C10.01397606 3.70473306 15.46613232 7.07743166 21 12 C21.60328125 12.49886719 22.2065625 12.99773437 22.828125 13.51171875 C32.44990939 22.11498092 38.18570513 35.42660089 40 48 C40.0841223 50.33717166 40.11780869 52.67645556 40.11352539 55.01513672 C40.11367142 55.68900925 40.11381744 56.36288177 40.1139679 57.05717468 C40.11327621 59.26471273 40.10551897 61.47216436 40.09765625 63.6796875 C40.09578942 65.21810866 40.09436677 66.75653042 40.09336853 68.29495239 C40.08956419 72.32924055 40.07975184 76.36349227 40.06866455 80.39776611 C40.05659937 85.24617765 40.05203826 90.09460141 40.04621124 94.94302368 C40.03653885 102.2953744 40.01736777 109.6476453 40 117 C28.45 117 16.9 117 5 117 C4.67 111.39 4.34 105.78 4 100 C3.154375 101.19625 2.30875 102.3925 1.4375 103.625 C-5.57207512 112.89467177 -13.79051203 117.22725139 -25 120 C-39.91293882 121.34435298 -53.07390038 118.47553121 -65 109 C-77.05001116 97.84469741 -84.21835448 82.87794629 -85.14038086 66.50756836 C-85.56521703 55.03275401 -85.64251564 44.68082029 -81 34 C-80.62617188 33.113125 -80.25234375 32.22625 -79.8671875 31.3125 C-72.74092717 15.83294113 -60.49706664 6.44432474 -45 0 C-31.1537696 -4.9488428 -13.84082303 -4.93042194 0 0 Z " fill="#F2F3F4" transform="translate(321,302)"/>
<path d="M0 0 C0.74168427 0.00215515 1.48336853 0.0043103 2.24752808 0.00653076 C20.38910552 0.09092494 37.65465418 2.07732709 54.125 10.3125 C54.125 21.8625 54.125 33.4125 54.125 45.3125 C43.125 42.3125 43.125 42.3125 39.91967773 41.22460938 C27.54429853 37.1856108 14.46231382 36.73778288 1.5625 36.8125 C0.30051285 36.81564209 0.30051285 36.81564209 -0.98696899 36.81884766 C-27.34057489 36.95256731 -52.49441207 42.46804661 -78.06640625 48.31640625 C-117.81645439 57.40287542 -164.38301401 67.55849299 -202.875 48.3125 C-202.875 36.7625 -202.875 25.2125 -202.875 13.3125 C-199.575 14.3025 -196.275 15.2925 -192.875 16.3125 C-190.21088453 17.04412262 -187.55160633 17.7574679 -184.875 18.4375 C-184.24078125 18.60636719 -183.6065625 18.77523437 -182.953125 18.94921875 C-160.1091041 24.75160006 -131.79583893 22.77614574 -108.875 18.3125 C-107.58851563 18.0654834 -106.30203125 17.8184668 -104.9765625 17.56396484 C-90.49794245 14.76228584 -76.08677719 11.74112506 -61.81298828 8.02270508 C-55.79204226 6.47849284 -49.73867688 5.24429424 -43.625 4.125 C-42.78614258 3.9700708 -41.94728516 3.8151416 -41.08300781 3.65551758 C-27.35585506 1.22802628 -13.93077232 -0.07343249 0 0 Z " fill="#EFBA4F" transform="translate(392.875,193.6875)"/>
<path d="M0 0 C1.31266846 0.00628418 1.31266846 0.00628418 2.65185547 0.01269531 C9.51130184 0.13190181 15.68498315 1.0469172 22.1875 3.3125 C23.03183594 3.57933594 23.87617188 3.84617187 24.74609375 4.12109375 C38.90217073 9.09007553 48.63992956 19.4785989 55.1796875 32.6953125 C57.56799825 38.89751484 58.48340749 44.66970521 58.41455078 51.2890625 C58.41484283 52.04125565 58.41513489 52.79344879 58.41543579 53.56843567 C58.41405584 56.02491279 58.39855852 58.48107666 58.3828125 60.9375 C58.37907761 62.65242345 58.37623289 64.36734904 58.37423706 66.08227539 C58.36663809 70.57360837 58.34702209 75.0648099 58.3248291 79.55609131 C58.3006721 84.95685612 58.29157188 90.35766513 58.27992249 95.75846863 C58.26059521 103.94323689 58.22224672 112.1277173 58.1875 120.3125 C46.6375 120.3125 35.0875 120.3125 23.1875 120.3125 C23.17332031 115.30320312 23.15914063 110.29390625 23.14453125 105.1328125 C23.12445334 101.94263924 23.10291651 98.75260738 23.07617188 95.5625 C23.03394049 90.50873348 22.99685787 85.45532576 22.99194336 80.40136719 C22.98763713 76.32262368 22.95898441 72.24468616 22.91406822 68.16619492 C22.9011669 66.61708156 22.8967592 65.06787138 22.90134621 63.51871109 C22.9214798 54.64721108 22.68910562 46.75503666 17.1875 39.3125 C12.2811149 34.63239448 7.08295226 32.54600421 0.3125 32 C-6.17919053 32.18618615 -12.32434385 34.58174082 -16.8125 39.3125 C-22.64520361 47.62501861 -22.54830582 56.10233714 -22.51953125 65.8203125 C-22.53266952 67.3978769 -22.54798022 68.97542455 -22.56535339 70.552948 C-22.60496818 74.6727396 -22.61537848 78.7920888 -22.61938477 82.91204834 C-22.63041412 87.87250232 -22.6782865 92.83272542 -22.71987152 97.79299927 C-22.77873584 105.29969613 -22.79124922 112.80517865 -22.8125 120.3125 C-34.3625 120.3125 -45.9125 120.3125 -57.8125 120.3125 C-57.97293524 101.57722951 -57.97293524 101.57722951 -58.0078125 93.52734375 C-58.0316283 88.05664347 -58.05965498 82.5862136 -58.11425781 77.11572266 C-58.15805031 72.70013231 -58.18170683 68.28483237 -58.19200897 63.86904144 C-58.19934091 62.19309678 -58.21365674 60.51716613 -58.23542023 58.84134674 C-58.43981398 42.43476759 -55.18917779 28.84535714 -43.5625 16.5625 C-31.64187315 5.24089963 -16.26033621 -0.10716252 0 0 Z " fill="#F3F4F5" transform="translate(483.8125,298.6875)"/>
<path d="M0 0 C11.88 0 23.76 0 36 0 C36 9.57 36 19.14 36 29 C46.56 29 57.12 29 68 29 C68 38.57 68 48.14 68 58 C57.44 58 46.88 58 36 58 C36.09681702 65.63580546 36.19947587 73.27105288 36.31738281 80.90649414 C36.35571432 83.50507767 36.39055974 86.10371502 36.421875 88.70239258 C36.46743466 92.43330143 36.52544462 96.1638384 36.5859375 99.89453125 C36.59748871 101.06023148 36.60903992 102.2259317 36.62094116 103.42695618 C36.64081085 104.50785019 36.66068054 105.5887442 36.68115234 106.70239258 C36.69447601 107.65503494 36.70779968 108.60767731 36.7215271 109.58918762 C36.84459272 112.26041348 36.84459272 112.26041348 39 115 C42.00414569 115.51184645 42.00414569 115.51184645 45.5390625 115.51171875 C46.71162598 115.54483154 47.88418945 115.57794434 49.09228516 115.61206055 C50.58808105 115.63695557 52.08387695 115.66185059 53.625 115.6875 C58.36875 115.790625 63.1125 115.89375 68 116 C68 125.9 68 135.8 68 146 C62.20084687 146.09229421 56.4042854 146.1717905 50.60498047 146.21972656 C48.63614218 146.23972787 46.66736244 146.26693802 44.69873047 146.30175781 C41.85369342 146.35078531 39.00944785 146.37308382 36.1640625 146.390625 C34.86343369 146.42159271 34.86343369 146.42159271 33.53652954 146.45318604 C23.8105503 146.45668371 15.02050214 142.76976992 8 136 C0.21692291 126.59544852 -0.43715695 115.63934233 -0.29296875 103.8984375 C-0.28872391 102.58082428 -0.28447906 101.26321106 -0.28010559 99.90567017 C-0.26876133 96.43681119 -0.23938711 92.9683412 -0.20599365 89.49963379 C-0.17506511 85.94642394 -0.16155206 82.39314999 -0.14648438 78.83984375 C-0.11450474 71.89305523 -0.06182494 64.94658645 0 58 C-6.27 58 -12.54 58 -19 58 C-19 48.43 -19 38.86 -19 29 C-12.73 29 -6.46 29 0 29 C0 19.43 0 9.86 0 0 Z " fill="#F1F2F3" transform="translate(91,273)"/>
<path d="M0 0 C1.38349388 0.00424484 1.38349388 0.00424484 2.79493713 0.00857544 C5.71889638 0.01970276 8.64254076 0.04479338 11.56640625 0.0703125 C13.55793826 0.08035193 15.54947511 0.0894761 17.54101562 0.09765625 C22.40386251 0.11790967 27.26603506 0.15707236 32.12890625 0.1953125 C32.12890625 9.7653125 32.12890625 19.3353125 32.12890625 29.1953125 C17.81640625 29.5078125 17.81640625 29.5078125 13.3112793 29.58325195 C12.14121338 29.61636475 10.97114746 29.64947754 9.765625 29.68359375 C8.56639404 29.70977783 7.36716309 29.73596191 6.1315918 29.76293945 C3.23746979 29.97631435 3.23746979 29.97631435 1.46826172 31.21911621 C-0.63746978 34.32608733 -0.31018818 37.6185535 -0.3034668 41.24682617 C-0.31365845 42.06656418 -0.3238501 42.88630219 -0.33435059 43.73088074 C-0.36455689 46.44174974 -0.37375807 49.15226585 -0.3828125 51.86328125 C-0.39965354 53.74230633 -0.417803 55.6213201 -0.43721008 57.50032043 C-0.48477866 62.44701607 -0.51454362 67.39366588 -0.54064941 72.34051514 C-0.57042038 77.38790948 -0.61696257 82.43514579 -0.66210938 87.48242188 C-0.74822064 97.38665442 -0.81398126 107.29087023 -0.87109375 117.1953125 C-12.75109375 117.1953125 -24.63109375 117.1953125 -36.87109375 117.1953125 C-36.9617076 105.65076005 -37.03498985 94.10644644 -37.07834244 82.56161785 C-37.09915662 77.20004173 -37.12736103 71.83872297 -37.17285156 66.47729492 C-37.21652997 61.29661872 -37.24027718 56.11618902 -37.25060272 50.93534279 C-37.25795476 48.96551449 -37.272311 46.99569864 -37.29401398 45.02597618 C-37.43080206 32.08883906 -37.25513919 20.52434447 -28.703125 9.98046875 C-20.47665268 1.96448186 -11.04838823 -0.12922239 0 0 Z " fill="#F0F1F2" transform="translate(204.87109375,301.8046875)"/>
<path d="M0 0 C11.88 0 23.76 0 36 0 C36 38.61 36 77.22 36 117 C24.12 117 12.24 117 0 117 C0 78.39 0 39.78 0 0 Z " fill="#F1F2F3" transform="translate(376,302)"/>
<path d="M0 0 C0.73541016 0.00202423 1.47082031 0.00404846 2.22851562 0.00613403 C2.97939453 0.00517731 3.73027344 0.00422058 4.50390625 0.00323486 C6.09440189 0.00255315 7.6849003 0.00440682 9.27539062 0.00857544 C11.71816217 0.01392386 14.16074984 0.00863019 16.60351562 0.00222778 C18.1451827 0.00288857 19.68684966 0.00416973 21.22851562 0.00613403 C21.96392578 0.0041098 22.69933594 0.00208557 23.45703125 0 C28.61356402 0.02399493 28.61356402 0.02399493 29.72851562 1.13894653 C29.82636337 2.61678454 29.85483328 4.09927921 29.85549927 5.58035278 C29.85831909 6.53949585 29.86113892 7.49863892 29.86404419 8.48684692 C29.86201996 9.54766479 29.85999573 10.60848267 29.85791016 11.70144653 C29.85966248 12.81189331 29.86141479 13.92234009 29.86322021 15.06643677 C29.86764135 18.757289 29.86469982 22.44809377 29.86132812 26.13894653 C29.86200109 28.69102996 29.86297105 31.24311333 29.86422729 33.79519653 C29.86570462 39.15197416 29.86364318 44.50873458 29.85888672 49.86550903 C29.85344413 56.06678368 29.8552068 62.26802546 29.86071312 68.46929932 C29.86578999 74.42428869 29.86526269 80.3792678 29.86233139 86.33425903 C29.86166186 88.87332158 29.86249144 91.41238496 29.86481094 93.95144653 C29.86733593 97.49313617 29.86349904 101.0347617 29.85791016 104.57644653 C29.85993439 105.6372644 29.86195862 106.69808228 29.86404419 107.79104614 C29.86122437 108.75018921 29.85840454 109.70933228 29.85549927 110.69754028 C29.85512224 111.53599487 29.85474522 112.37444946 29.85435677 113.23831177 C29.72851562 115.13894653 29.72851562 115.13894653 28.72851562 116.13894653 C26.21927409 116.23981865 23.73815179 116.27866686 21.22851562 116.27175903 C20.47763672 116.27271576 19.72675781 116.27367249 18.953125 116.2746582 C17.36262936 116.27533991 15.77213095 116.27348625 14.18164062 116.26931763 C11.73886908 116.2639692 9.29628141 116.26926287 6.85351562 116.27566528 C5.31184855 116.2750045 3.77018159 116.27372333 2.22851562 116.27175903 C1.49310547 116.27378326 0.75769531 116.2758075 0 116.27789307 C-5.15653277 116.25389814 -5.15653277 116.25389814 -6.27148438 115.13894653 C-6.36933212 113.66110852 -6.39780203 112.17861386 -6.39846802 110.69754028 C-6.40128784 109.73839722 -6.40410767 108.77925415 -6.40701294 107.79104614 C-6.40498871 106.73022827 -6.40296448 105.6694104 -6.40087891 104.57644653 C-6.40263123 103.46599976 -6.40438354 102.35555298 -6.40618896 101.2114563 C-6.4106101 97.52060407 -6.40766857 93.8297993 -6.40429688 90.13894653 C-6.40496984 87.58686311 -6.4059398 85.03477974 -6.40719604 82.48269653 C-6.40867337 77.12591891 -6.40661193 71.76915848 -6.40185547 66.41238403 C-6.39641288 60.21110938 -6.39817555 54.0098676 -6.40368187 47.80859375 C-6.40875874 41.85360438 -6.40823144 35.89862526 -6.40530014 29.94363403 C-6.40463061 27.40457149 -6.40546019 24.86550811 -6.40777969 22.32644653 C-6.41030468 18.78475689 -6.40646779 15.24313137 -6.40087891 11.70144653 C-6.40290314 10.64062866 -6.40492737 9.57981079 -6.40701294 8.48684692 C-6.40419312 7.52770386 -6.40137329 6.56856079 -6.39846802 5.58035278 C-6.39809099 4.74189819 -6.39771397 3.9034436 -6.39732552 3.0395813 C-6.1319348 -0.96873279 -3.37538531 0.0157067 0 0 Z " fill="#F3F4F5" transform="translate(466.271484375,164.86105346679688)"/>
<path d="M0 0 C0.73541016 0.00202423 1.47082031 0.00404846 2.22851562 0.00613403 C2.97939453 0.00517731 3.73027344 0.00422058 4.50390625 0.00323486 C6.09440189 0.00255315 7.6849003 0.00440682 9.27539062 0.00857544 C11.71816217 0.01392386 14.16074984 0.00863019 16.60351562 0.00222778 C18.1451827 0.00288857 19.68684966 0.00416973 21.22851562 0.00613403 C21.96392578 0.0041098 22.69933594 0.00208557 23.45703125 0 C28.61356402 0.02399493 28.61356402 0.02399493 29.72851562 1.13894653 C29.82632282 2.6018628 29.85483308 4.06947774 29.85549927 5.53565979 C29.85831909 6.48494354 29.86113892 7.43422729 29.86404419 8.41227722 C29.86201996 9.46217331 29.85999573 10.5120694 29.85791016 11.59378052 C29.85966248 12.69286743 29.86141479 13.79195435 29.86322021 14.92434692 C29.86764168 18.57792718 29.8646995 22.23145949 29.86132812 25.88504028 C29.86200113 28.41230783 29.86297112 30.93957532 29.86422729 33.46684265 C29.86570471 38.77234572 29.86364314 44.07783143 29.85888672 49.3833313 C29.85344691 55.52210208 29.85520473 61.66083963 29.86071312 67.7996096 C29.86579364 73.69693049 29.86526119 79.59424103 29.86233139 85.4915638 C29.86166233 88.00468004 29.8624898 90.51779713 29.86481094 93.0309124 C29.86733928 96.53887072 29.86349413 100.04676452 29.85791016 103.55471802 C29.85993439 104.60258987 29.86195862 105.65046173 29.86404419 106.73008728 C29.86122437 107.68219086 29.85840454 108.63429443 29.85549927 109.61524963 C29.85512224 110.44540809 29.85474522 111.27556654 29.85435677 112.13088131 C29.72851562 114.13894653 29.72851562 114.13894653 28.72851562 116.13894653 C23.90470761 116.16359843 19.08093596 116.18178346 14.25708008 116.19387817 C12.61482098 116.19891827 10.97256639 116.20575031 9.33032227 116.21438599 C6.97476084 116.22646579 4.61925854 116.23217792 2.26367188 116.23660278 C1.52512466 116.24176407 0.78657745 116.24692535 0.02565002 116.25224304 C-1.74046525 116.25243903 -3.50645583 116.20089372 -5.27148438 116.13894653 C-6.86332337 114.54710754 -6.39747562 112.90449154 -6.39846802 110.69754028 C-6.40128784 109.73839722 -6.40410767 108.77925415 -6.40701294 107.79104614 C-6.40498871 106.73022827 -6.40296448 105.6694104 -6.40087891 104.57644653 C-6.40263123 103.46599976 -6.40438354 102.35555298 -6.40618896 101.2114563 C-6.4106101 97.52060407 -6.40766857 93.8297993 -6.40429688 90.13894653 C-6.40496984 87.58686311 -6.4059398 85.03477974 -6.40719604 82.48269653 C-6.40867337 77.12591891 -6.40661193 71.76915848 -6.40185547 66.41238403 C-6.39641288 60.21110938 -6.39817555 54.0098676 -6.40368187 47.80859375 C-6.40875874 41.85360438 -6.40823144 35.89862526 -6.40530014 29.94363403 C-6.40463061 27.40457149 -6.40546019 24.86550811 -6.40777969 22.32644653 C-6.41030468 18.78475689 -6.40646779 15.24313137 -6.40087891 11.70144653 C-6.40290314 10.64062866 -6.40492737 9.57981079 -6.40701294 8.48684692 C-6.40419312 7.52770386 -6.40137329 6.56856079 -6.39846802 5.58035278 C-6.39809099 4.74189819 -6.39771397 3.9034436 -6.39732552 3.0395813 C-6.1319348 -0.96873279 -3.37538531 0.0157067 0 0 Z " fill="#F3F5F3" transform="translate(147.271484375,164.86105346679688)"/>
<path d="M0 0 C4.82380802 -0.0246519 9.64757967 -0.04283693 14.47143555 -0.05493164 C16.11369464 -0.05997174 17.75594923 -0.06680378 19.39819336 -0.07543945 C21.75375479 -0.08751926 24.10925709 -0.09323139 26.46484375 -0.09765625 C27.20339096 -0.10281754 27.94193817 -0.10797882 28.7028656 -0.11329651 C30.46898088 -0.1134925 32.23497146 -0.06194719 34 0 C35.89122114 1.89122114 35.12782618 5.19591572 35.12939453 7.70703125 C35.13114685 8.40782806 35.13289917 9.10862488 35.13470459 9.83065796 C35.13912266 12.15796349 35.13618529 14.48519364 35.1328125 16.8125 C35.13348555 18.42293309 35.13445559 20.03336609 35.13571167 21.64379883 C35.13718858 25.02328455 35.13503431 28.4027439 35.13037109 31.78222656 C35.1246738 36.12376505 35.12795285 40.46524173 35.13394356 44.80677795 C35.13754936 48.13350901 35.1364105 51.4602253 35.13381577 54.78695679 C35.13314655 56.38821418 35.13397474 57.9894729 35.13629532 59.59072876 C35.13882216 61.82484511 35.13498085 64.05886 35.12939453 66.29296875 C35.12859894 67.5668042 35.12780334 68.84063965 35.12698364 70.15307617 C35 73 35 73 34 74 C31.47905924 74.08847743 28.98569107 74.11527301 26.46484375 74.09765625 C25.33496788 74.09553383 25.33496788 74.09553383 24.18226624 74.09336853 C21.7673044 74.08775376 19.35243399 74.07519883 16.9375 74.0625 C15.30403779 74.0574869 13.67057414 74.05292366 12.03710938 74.04882812 C8.02470415 74.03777954 4.01236759 74.02050506 0 74 C-1.44498338 71.11003324 -1.12731121 68.60778788 -1.12939453 65.37890625 C-1.13114685 64.69907684 -1.13289917 64.01924744 -1.13470459 63.31881714 C-1.13911375 61.06668563 -1.13618841 58.81463234 -1.1328125 56.5625 C-1.13348581 55.00073227 -1.13445606 53.43896464 -1.13571167 51.87719727 C-1.13718737 48.60204064 -1.13503817 45.32691127 -1.13037109 42.05175781 C-1.12467388 37.84822928 -1.12795356 33.64476459 -1.13394356 29.4412384 C-1.1375526 26.21569333 -1.136409 22.99016345 -1.13381577 19.76461792 C-1.13314745 18.2144266 -1.13397161 16.66423391 -1.13629532 15.11404419 C-1.13882745 12.94969005 -1.13497332 10.78544011 -1.12939453 8.62109375 C-1.12859894 7.3880249 -1.12780334 6.15495605 -1.12698364 4.88452148 C-1 2 -1 2 0 0 Z " fill="#F0BB4F" transform="translate(510,186)"/>
<path d="M0 0 C1.08946678 -0.0049926 1.08946678 -0.0049926 2.20094299 -0.01008606 C3.74015671 -0.015158 5.27938145 -0.0174943 6.81860352 -0.01733398 C9.17808096 -0.01951891 11.53708986 -0.0376669 13.89648438 -0.05664062 C15.38932131 -0.05957477 16.88216048 -0.06155942 18.375 -0.0625 C19.43756264 -0.07327827 19.43756264 -0.07327827 20.52159119 -0.08427429 C25.52508288 -0.06085462 25.52508288 -0.06085462 27.75390625 2.16796875 C28.00787354 5.05249023 28.00787354 5.05249023 28.01269531 8.7890625 C28.01619995 9.46889191 28.01970459 10.14872131 28.02331543 10.84915161 C28.03213406 13.10136051 28.0262833 15.35325653 28.01953125 17.60546875 C28.02087787 19.16723694 28.02281837 20.72900473 28.02532959 22.29077148 C28.02828102 25.56595852 28.02398264 28.84103656 28.01464844 32.11621094 C28.00325382 36.31980566 28.0098132 40.523145 28.02179337 44.72673035 C28.02901148 47.95229017 28.02672428 51.1777892 28.02153778 54.40335083 C28.02020115 55.95354238 28.02184949 57.5037394 28.02649689 59.05392456 C28.03156141 61.21839068 28.02385335 63.38244002 28.01269531 65.546875 C28.01110413 66.77994385 28.00951294 68.0130127 28.00787354 69.28344727 C27.75390625 72.16796875 27.75390625 72.16796875 25.75390625 74.16796875 C23.25646763 74.35518727 20.87201942 74.42376642 18.375 74.3984375 C17.64773209 74.39797928 16.92046417 74.39752106 16.17115784 74.39704895 C14.63370126 74.39402711 13.09624773 74.3861428 11.55883789 74.3737793 C9.1973189 74.35551448 6.83619164 74.35326965 4.47460938 74.35351562 C2.98306951 74.34860078 1.49153231 74.34277261 0 74.3359375 C-0.71039932 74.33482468 -1.42079865 74.33371185 -2.15272522 74.33256531 C-7.1300401 74.2840224 -7.1300401 74.2840224 -8.24609375 73.16796875 C-8.34573295 70.93409669 -8.3740917 68.69703016 -8.37548828 66.4609375 C-8.3772406 65.76014069 -8.37899292 65.05934387 -8.38079834 64.33731079 C-8.38521641 62.01000526 -8.38227904 59.68277511 -8.37890625 57.35546875 C-8.3795793 55.74503566 -8.38054934 54.13460266 -8.38180542 52.52416992 C-8.38328233 49.1446842 -8.38112806 45.76522485 -8.37646484 42.38574219 C-8.37076755 38.0442037 -8.3740466 33.70272702 -8.38003731 29.3611908 C-8.38364311 26.03445974 -8.38250425 22.70774345 -8.37990952 19.38101196 C-8.3792403 17.77975457 -8.38006849 16.17849585 -8.38238907 14.57723999 C-8.38491591 12.34312364 -8.3810746 10.10910875 -8.37548828 7.875 C-8.37469269 6.60116455 -8.37389709 5.3273291 -8.37307739 4.01489258 C-8.13072247 -1.41861051 -4.4548613 0.00697843 0 0 Z " fill="#EFBB4F" transform="translate(100.24609375,185.83203125)"/>
<path d="M0 0 C6.02024257 3.77766884 11.98070105 10.11733086 14.09765625 17.0078125 C15.89795818 28.43885583 15.40181159 38.93005966 9.0625 48.80078125 C4.12017822 55.29945916 -2.1287447 57.7812265 -10.078125 58.9375 C-17.30297442 59.30101444 -23.80893033 57.4349003 -29.54296875 52.97265625 C-36.64757857 45.80745274 -38.66911474 36.1841469 -39 26.375 C-38.71010964 17.38839876 -36.09848263 9.86771674 -29.5 3.5625 C-21.7996547 -2.88867817 -9.25268944 -3.95758598 0 0 Z " fill="#1F2C2F" transform="translate(310.5,332.4375)"/>
<path d="M0 0 C5.63479474 3.1041983 10.22021565 6.66105393 12.234375 12.9375 C13.07230392 19.64914636 13.34609934 26.26615608 9.234375 31.9375 C5.29417119 36.53440445 0.93047684 40.33960117 -5.15625 41.32421875 C-11.16470231 41.59146586 -15.88869837 40.51670366 -20.765625 36.9375 C-25.23632962 32.74497255 -28.25777775 28.51381382 -29.13671875 22.32421875 C-29.30462999 15.49912061 -28.28870165 11.13372383 -23.765625 5.9375 C-16.98259183 -0.86288108 -9.29498212 -3.57095358 0 0 Z " fill="#F0F1F2" transform="translate(401.765625,248.0625)"/>
</svg>
