<?xml version="1.0" encoding="UTF-8"?>
<svg version="1.1" xmlns="http://www.w3.org/2000/svg" width="625" height="625">
<path d="M0 0 C206.25 0 412.5 0 625 0 C625 206.25 625 412.5 625 625 C418.75 625 212.5 625 0 625 C0 418.75 0 212.5 0 0 Z " fill="#FEFEFE" transform="translate(0,0)"/>
<path d="M0 0 C17.86226193 -0.65371285 34.47168565 4.50975634 47.76171875 16.79296875 C62.24520104 32.09275036 64.68584286 49.26067245 64.609375 69.546875 C64.60750636 71.01374768 64.60608456 72.48062098 64.60508728 73.94749451 C64.60129723 77.7795285 64.59149757 81.61152367 64.5803833 85.44354248 C64.56827893 90.05674691 64.5637502 94.66996443 64.55792999 99.28318024 C64.54828342 106.26563662 64.52910247 113.24800806 64.51171875 120.23046875 C52.96171875 120.23046875 41.41171875 120.23046875 29.51171875 120.23046875 C29.18171875 114.62046875 28.85171875 109.01046875 28.51171875 103.23046875 C27.66609375 104.42671875 26.82046875 105.62296875 25.94921875 106.85546875 C19.00747128 115.98765162 10.04052189 121.51341296 -1.48828125 123.23046875 C-15.37336479 124.22927783 -27.31905858 122.03819863 -38.48828125 113.23046875 C-39.17535156 112.71742188 -39.86242187 112.204375 -40.5703125 111.67578125 C-51.22490283 103.16025781 -58.39850209 89.07719484 -60.20703125 75.65234375 C-61.76197663 56.73384163 -60.44712021 38.93414672 -48.27734375 23.41015625 C-46.09625307 20.91641776 -43.84730238 18.55560806 -41.48828125 16.23046875 C-40.64330078 15.37001953 -40.64330078 15.37001953 -39.78125 14.4921875 C-28.94740716 4.29097782 -14.33687997 0.94722947 0 0 Z " fill="#1F2C2F" transform="translate(296.48828125,299.76953125)"/>
<path d="M0 0 C0 11.55 0 23.1 0 35 C-11 32 -11 32 -14.20532227 30.91210938 C-26.58070147 26.8731108 -39.66268618 26.42528288 -52.5625 26.5 C-53.82448715 26.50314209 -53.82448715 26.50314209 -55.11196899 26.50634766 C-81.46701123 26.6400746 -106.62159433 32.15709682 -132.1953125 38.00390625 C-171.9025406 47.07804884 -218.54657229 57.22671385 -257 38 C-257 26.45 -257 14.9 -257 3 C-253.7 3.99 -250.4 4.98 -247 6 C-244.33588453 6.73162262 -241.67660633 7.4449679 -239 8.125 C-238.36578125 8.29386719 -237.7315625 8.46273437 -237.078125 8.63671875 C-226.89492494 11.22325157 -216.55878158 11.18641308 -206.1159668 11.18530273 C-203.83427983 11.18747922 -201.55308568 11.20566778 -199.27148438 11.22460938 C-189.65887773 11.26192398 -180.50878089 10.51860804 -171 9 C-170.00492432 8.85393311 -169.00984863 8.70786621 -167.98461914 8.55737305 C-155.61736967 6.73006457 -143.48873075 4.2789949 -131.35351562 1.28662109 C-120.29041817 -1.44133659 -109.19599369 -3.88035291 -98 -6 C-96.45119141 -6.29849854 -96.45119141 -6.29849854 -94.87109375 -6.60302734 C-64.25718176 -12.33609276 -28.67113799 -14.335569 0 0 Z " fill="#F1BC51" transform="translate(447,204)"/>
<path d="M0 0 C9.09289046 7.62491599 15.53432624 18.59830602 17.8125 30.3125 C17.90142153 32.82974304 17.9388483 35.31827679 17.92602539 37.83496094 C17.92617142 38.58656998 17.92631744 39.33817902 17.9264679 40.11256409 C17.92577262 42.59069734 17.91799826 45.06875492 17.91015625 47.546875 C17.9082907 49.26751667 17.90686744 50.98815888 17.90586853 52.70880127 C17.90205413 57.23302685 17.89223302 61.75722023 17.88116455 66.28143311 C17.86912674 71.71215652 17.86454306 77.14289071 17.85871124 82.57362366 C17.8490207 90.81993816 17.82985661 99.06618202 17.8125 107.3125 C6.2625 107.3125 -5.2875 107.3125 -17.1875 107.3125 C-17.20167969 102.30320312 -17.21585937 97.29390625 -17.23046875 92.1328125 C-17.25054666 88.94263924 -17.27208349 85.75260738 -17.29882812 82.5625 C-17.34105951 77.50873348 -17.37814213 72.45532576 -17.38305664 67.40136719 C-17.38736287 63.32262368 -17.41601559 59.24468616 -17.46093178 55.16619492 C-17.4738331 53.61708156 -17.4782408 52.06787138 -17.47365379 50.51871109 C-17.45050148 40.31706468 -18.1247779 31.64888275 -25.5 23.875 C-32.12550284 20.02296347 -38.4635475 18.035123 -46.1875 19.3125 C-53.20322582 21.98045207 -57.44968466 25.77289002 -60.76203918 32.51954651 C-62.32921646 36.25867891 -62.58358704 39.55346633 -62.61987305 43.62475586 C-62.6300647 44.31828156 -62.64025635 45.01180725 -62.65075684 45.72634888 C-62.68068413 47.9934315 -62.69012111 50.26009025 -62.69921875 52.52734375 C-62.71608057 54.10919069 -62.73423283 55.69102436 -62.75361633 57.27284241 C-62.80095959 61.41720429 -62.83086993 65.56151233 -62.85705566 69.70605469 C-62.89220372 74.6889496 -62.94917154 79.67163782 -63.00244904 84.65436554 C-63.0807791 92.20705019 -63.13152302 99.75946769 -63.1875 107.3125 C-74.7375 107.3125 -86.2875 107.3125 -98.1875 107.3125 C-98.34793524 88.57722951 -98.34793524 88.57722951 -98.3828125 80.52734375 C-98.4066283 75.05664347 -98.43465498 69.5862136 -98.48925781 64.11572266 C-98.53305031 59.70013231 -98.55670683 55.28483237 -98.56700897 50.86904144 C-98.57434091 49.19309678 -98.58865674 47.51716613 -98.61042023 45.84134674 C-98.8191378 29.08769698 -95.20770294 15.84861158 -83.625 3.125 C-60.92966359 -18.08925879 -24.41000729 -18.21587631 0 0 Z " fill="#1E2B2E" transform="translate(524.1875,312.6875)"/>
<path d="M0 0 C11.88 0 23.76 0 36 0 C36 9.57 36 19.14 36 29 C46.56 29 57.12 29 68 29 C68 38.57 68 48.14 68 58 C57.44 58 46.88 58 36 58 C36.09681702 65.63580546 36.19947587 73.27105288 36.31738281 80.90649414 C36.35571432 83.50507767 36.39055974 86.10371502 36.421875 88.70239258 C36.46743466 92.43330143 36.52544462 96.1638384 36.5859375 99.89453125 C36.59748871 101.06023148 36.60903992 102.2259317 36.62094116 103.42695618 C36.64081085 104.50785019 36.66068054 105.5887442 36.68115234 106.70239258 C36.69447601 107.65503494 36.70779968 108.60767731 36.7215271 109.58918762 C36.84459272 112.26041348 36.84459272 112.26041348 39 115 C42.00414569 115.51184645 42.00414569 115.51184645 45.5390625 115.51171875 C46.71162598 115.54483154 47.88418945 115.57794434 49.09228516 115.61206055 C50.58808105 115.63695557 52.08387695 115.66185059 53.625 115.6875 C58.36875 115.790625 63.1125 115.89375 68 116 C68 125.9 68 135.8 68 146 C62.20084687 146.09229421 56.4042854 146.1717905 50.60498047 146.21972656 C48.63614218 146.23972787 46.66736244 146.26693802 44.69873047 146.30175781 C41.85369342 146.35078531 39.00944785 146.37308382 36.1640625 146.390625 C34.86343369 146.42159271 34.86343369 146.42159271 33.53652954 146.45318604 C23.8105503 146.45668371 15.02050214 142.76976992 8 136 C0.21692291 126.59544852 -0.43715695 115.63934233 -0.29296875 103.8984375 C-0.28872391 102.58082428 -0.28447906 101.26321106 -0.28010559 99.90567017 C-0.26876133 96.43681119 -0.23938711 92.9683412 -0.20599365 89.49963379 C-0.17506511 85.94642394 -0.16155206 82.39314999 -0.14648438 78.83984375 C-0.11450474 71.89305523 -0.06182494 64.94658645 0 58 C-6.27 58 -12.54 58 -19 58 C-19 48.43 -19 38.86 -19 29 C-12.73 29 -6.46 29 0 29 C0 19.43 0 9.86 0 0 Z " fill="#202D30" transform="translate(91,274)"/>
<path d="M0 0 C1.38349388 0.00424484 1.38349388 0.00424484 2.79493713 0.00857544 C5.71889638 0.01970276 8.64254076 0.04479338 11.56640625 0.0703125 C13.55793826 0.08035193 15.54947511 0.0894761 17.54101562 0.09765625 C22.40386251 0.11790967 27.26603506 0.15707236 32.12890625 0.1953125 C32.12890625 9.7653125 32.12890625 19.3353125 32.12890625 29.1953125 C17.81640625 29.5078125 17.81640625 29.5078125 13.3112793 29.58325195 C12.14121338 29.61636475 10.97114746 29.64947754 9.765625 29.68359375 C8.56639404 29.70977783 7.36716309 29.73596191 6.1315918 29.76293945 C3.23746979 29.97631435 3.23746979 29.97631435 1.46826172 31.21911621 C-0.63746978 34.32608733 -0.31018818 37.6185535 -0.3034668 41.24682617 C-0.31365845 42.06656418 -0.3238501 42.88630219 -0.33435059 43.73088074 C-0.36455689 46.44174974 -0.37375807 49.15226585 -0.3828125 51.86328125 C-0.39965354 53.74230633 -0.417803 55.6213201 -0.43721008 57.50032043 C-0.48477866 62.44701607 -0.51454362 67.39366588 -0.54064941 72.34051514 C-0.57042038 77.38790948 -0.61696257 82.43514579 -0.66210938 87.48242188 C-0.74822064 97.38665442 -0.81398126 107.29087023 -0.87109375 117.1953125 C-12.75109375 117.1953125 -24.63109375 117.1953125 -36.87109375 117.1953125 C-36.9617076 105.65076005 -37.03498985 94.10644644 -37.07834244 82.56161785 C-37.09915662 77.20004173 -37.12736103 71.83872297 -37.17285156 66.47729492 C-37.21652997 61.29661872 -37.24027718 56.11618902 -37.25060272 50.93534279 C-37.25795476 48.96551449 -37.272311 46.99569864 -37.29401398 45.02597618 C-37.43080206 32.08883906 -37.25513919 20.52434447 -28.703125 9.98046875 C-20.47665268 1.96448186 -11.04838823 -0.12922239 0 0 Z " fill="#222E31" transform="translate(204.87109375,302.8046875)"/>
<path d="M0 0 C11.88 0 23.76 0 36 0 C36 38.61 36 77.22 36 117 C24.12 117 12.24 117 0 117 C0 78.39 0 39.78 0 0 Z " fill="#202D30" transform="translate(376,303)"/>
<path d="M0 0 C0.73541016 0.00202423 1.47082031 0.00404846 2.22851562 0.00613403 C2.97939453 0.00517731 3.73027344 0.00422058 4.50390625 0.00323486 C6.09440189 0.00255315 7.6849003 0.00440682 9.27539062 0.00857544 C11.71816217 0.01392386 14.16074984 0.00863019 16.60351562 0.00222778 C18.1451827 0.00288857 19.68684966 0.00416973 21.22851562 0.00613403 C21.96392578 0.0041098 22.69933594 0.00208557 23.45703125 0 C28.61356402 0.02399493 28.61356402 0.02399493 29.72851562 1.13894653 C29.82632282 2.6018628 29.85483308 4.06947774 29.85549927 5.53565979 C29.85831909 6.48494354 29.86113892 7.43422729 29.86404419 8.41227722 C29.86201996 9.46217331 29.85999573 10.5120694 29.85791016 11.59378052 C29.85966248 12.69286743 29.86141479 13.79195435 29.86322021 14.92434692 C29.86764168 18.57792718 29.8646995 22.23145949 29.86132812 25.88504028 C29.86200113 28.41230783 29.86297112 30.93957532 29.86422729 33.46684265 C29.86570471 38.77234572 29.86364314 44.07783143 29.85888672 49.3833313 C29.85344691 55.52210208 29.85520473 61.66083963 29.86071312 67.7996096 C29.86579364 73.69693049 29.86526119 79.59424103 29.86233139 85.4915638 C29.86166233 88.00468004 29.8624898 90.51779713 29.86481094 93.0309124 C29.86733928 96.53887072 29.86349413 100.04676452 29.85791016 103.55471802 C29.85993439 104.60258987 29.86195862 105.65046173 29.86404419 106.73008728 C29.86122437 107.68219086 29.85840454 108.63429443 29.85549927 109.61524963 C29.85512224 110.44540809 29.85474522 111.27556654 29.85435677 112.13088131 C29.72851562 114.13894653 29.72851562 114.13894653 28.72851562 116.13894653 C23.90470761 116.16359843 19.08093596 116.18178346 14.25708008 116.19387817 C12.61482098 116.19891827 10.97256639 116.20575031 9.33032227 116.21438599 C6.97476084 116.22646579 4.61925854 116.23217792 2.26367188 116.23660278 C1.52512466 116.24176407 0.78657745 116.24692535 0.02565002 116.25224304 C-1.74046525 116.25243903 -3.50645583 116.20089372 -5.27148438 116.13894653 C-6.86332337 114.54710754 -6.39747562 112.90449154 -6.39846802 110.69754028 C-6.40128784 109.73839722 -6.40410767 108.77925415 -6.40701294 107.79104614 C-6.40498871 106.73022827 -6.40296448 105.6694104 -6.40087891 104.57644653 C-6.40263123 103.46599976 -6.40438354 102.35555298 -6.40618896 101.2114563 C-6.4106101 97.52060407 -6.40766857 93.8297993 -6.40429688 90.13894653 C-6.40496984 87.58686311 -6.4059398 85.03477974 -6.40719604 82.48269653 C-6.40867337 77.12591891 -6.40661193 71.76915848 -6.40185547 66.41238403 C-6.39641288 60.21110938 -6.39817555 54.0098676 -6.40368187 47.80859375 C-6.40875874 41.85360438 -6.40823144 35.89862526 -6.40530014 29.94363403 C-6.40463061 27.40457149 -6.40546019 24.86550811 -6.40777969 22.32644653 C-6.41030468 18.78475689 -6.40646779 15.24313137 -6.40087891 11.70144653 C-6.40290314 10.64062866 -6.40492737 9.57981079 -6.40701294 8.48684692 C-6.40419312 7.52770386 -6.40137329 6.56856079 -6.39846802 5.58035278 C-6.39809099 4.74189819 -6.39771397 3.9034436 -6.39732552 3.0395813 C-6.1319348 -0.96873279 -3.37538531 0.0157067 0 0 Z " fill="#1E2B2E" transform="translate(466.271484375,164.86105346679688)"/>
<path d="M0 0 C0.73541016 0.00202423 1.47082031 0.00404846 2.22851562 0.00613403 C2.97939453 0.00517731 3.73027344 0.00422058 4.50390625 0.00323486 C6.09440189 0.00255315 7.6849003 0.00440682 9.27539062 0.00857544 C11.71816217 0.01392386 14.16074984 0.00863019 16.60351562 0.00222778 C18.1451827 0.00288857 19.68684966 0.00416973 21.22851562 0.00613403 C21.96392578 0.0041098 22.69933594 0.00208557 23.45703125 0 C28.61356402 0.02399493 28.61356402 0.02399493 29.72851562 1.13894653 C29.82632282 2.6018628 29.85483308 4.06947774 29.85549927 5.53565979 C29.85831909 6.48494354 29.86113892 7.43422729 29.86404419 8.41227722 C29.86201996 9.46217331 29.85999573 10.5120694 29.85791016 11.59378052 C29.85966248 12.69286743 29.86141479 13.79195435 29.86322021 14.92434692 C29.86764168 18.57792718 29.8646995 22.23145949 29.86132812 25.88504028 C29.86200113 28.41230783 29.86297112 30.93957532 29.86422729 33.46684265 C29.86570471 38.77234572 29.86364314 44.07783143 29.85888672 49.3833313 C29.85344691 55.52210208 29.85520473 61.66083963 29.86071312 67.7996096 C29.86579364 73.69693049 29.86526119 79.59424103 29.86233139 85.4915638 C29.86166233 88.00468004 29.8624898 90.51779713 29.86481094 93.0309124 C29.86733928 96.53887072 29.86349413 100.04676452 29.85791016 103.55471802 C29.85993439 104.60258987 29.86195862 105.65046173 29.86404419 106.73008728 C29.86122437 107.68219086 29.85840454 108.63429443 29.85549927 109.61524963 C29.85512224 110.44540809 29.85474522 111.27556654 29.85435677 112.13088131 C29.72851562 114.13894653 29.72851562 114.13894653 28.72851562 116.13894653 C23.90470761 116.16359843 19.08093596 116.18178346 14.25708008 116.19387817 C12.61482098 116.19891827 10.97256639 116.20575031 9.33032227 116.21438599 C6.97476084 116.22646579 4.61925854 116.23217792 2.26367188 116.23660278 C1.52512466 116.24176407 0.78657745 116.24692535 0.02565002 116.25224304 C-1.74046525 116.25243903 -3.50645583 116.20089372 -5.27148438 116.13894653 C-6.86332337 114.54710754 -6.39747562 112.90449154 -6.39846802 110.69754028 C-6.40128784 109.73839722 -6.40410767 108.77925415 -6.40701294 107.79104614 C-6.40498871 106.73022827 -6.40296448 105.6694104 -6.40087891 104.57644653 C-6.40263123 103.46599976 -6.40438354 102.35555298 -6.40618896 101.2114563 C-6.4106101 97.52060407 -6.40766857 93.8297993 -6.40429688 90.13894653 C-6.40496984 87.58686311 -6.4059398 85.03477974 -6.40719604 82.48269653 C-6.40867337 77.12591891 -6.40661193 71.76915848 -6.40185547 66.41238403 C-6.39641288 60.21110938 -6.39817555 54.0098676 -6.40368187 47.80859375 C-6.40875874 41.85360438 -6.40823144 35.89862526 -6.40530014 29.94363403 C-6.40463061 27.40457149 -6.40546019 24.86550811 -6.40777969 22.32644653 C-6.41030468 18.78475689 -6.40646779 15.24313137 -6.40087891 11.70144653 C-6.40290314 10.64062866 -6.40492737 9.57981079 -6.40701294 8.48684692 C-6.40419312 7.52770386 -6.40137329 6.56856079 -6.39846802 5.58035278 C-6.39809099 4.74189819 -6.39771397 3.9034436 -6.39732552 3.0395813 C-6.1319348 -0.96873279 -3.37538531 0.0157067 0 0 Z " fill="#1E2B2E" transform="translate(147.271484375,164.86105346679688)"/>
<path d="M0 0 C4.82380802 -0.0246519 9.64757967 -0.04283693 14.47143555 -0.05493164 C16.11369464 -0.05997174 17.75594923 -0.06680378 19.39819336 -0.07543945 C21.75375479 -0.08751926 24.10925709 -0.09323139 26.46484375 -0.09765625 C27.20339096 -0.10281754 27.94193817 -0.10797882 28.7028656 -0.11329651 C30.46898088 -0.1134925 32.23497146 -0.06194719 34 0 C35.89122114 1.89122114 35.12782618 5.19591572 35.12939453 7.70703125 C35.13114685 8.40782806 35.13289917 9.10862488 35.13470459 9.83065796 C35.13912266 12.15796349 35.13618529 14.48519364 35.1328125 16.8125 C35.13348555 18.42293309 35.13445559 20.03336609 35.13571167 21.64379883 C35.13718858 25.02328455 35.13503431 28.4027439 35.13037109 31.78222656 C35.1246738 36.12376505 35.12795285 40.46524173 35.13394356 44.80677795 C35.13754936 48.13350901 35.1364105 51.4602253 35.13381577 54.78695679 C35.13314655 56.38821418 35.13397474 57.9894729 35.13629532 59.59072876 C35.13882216 61.82484511 35.13498085 64.05886 35.12939453 66.29296875 C35.12859894 67.5668042 35.12780334 68.84063965 35.12698364 70.15307617 C35 73 35 73 34 74 C31.47905924 74.08847743 28.98569107 74.11527301 26.46484375 74.09765625 C25.33496788 74.09553383 25.33496788 74.09553383 24.18226624 74.09336853 C21.7673044 74.08775376 19.35243399 74.07519883 16.9375 74.0625 C15.30403779 74.0574869 13.67057414 74.05292366 12.03710938 74.04882812 C8.02470415 74.03777954 4.01236759 74.02050506 0 74 C-1.44498338 71.11003324 -1.12731121 68.60778788 -1.12939453 65.37890625 C-1.13114685 64.69907684 -1.13289917 64.01924744 -1.13470459 63.31881714 C-1.13911375 61.06668563 -1.13618841 58.81463234 -1.1328125 56.5625 C-1.13348581 55.00073227 -1.13445606 53.43896464 -1.13571167 51.87719727 C-1.13718737 48.60204064 -1.13503817 45.32691127 -1.13037109 42.05175781 C-1.12467388 37.84822928 -1.12795356 33.64476459 -1.13394356 29.4412384 C-1.1375526 26.21569333 -1.136409 22.99016345 -1.13381577 19.76461792 C-1.13314745 18.2144266 -1.13397161 16.66423391 -1.13629532 15.11404419 C-1.13882745 12.94969005 -1.13497332 10.78544011 -1.12939453 8.62109375 C-1.12859894 7.3880249 -1.12780334 6.15495605 -1.12698364 4.88452148 C-1 2 -1 2 0 0 Z " fill="#F1BC50" transform="translate(510,186)"/>
<path d="M0 0 C1.08946678 -0.0049926 1.08946678 -0.0049926 2.20094299 -0.01008606 C3.74015671 -0.015158 5.27938145 -0.0174943 6.81860352 -0.01733398 C9.17808096 -0.01951891 11.53708986 -0.0376669 13.89648438 -0.05664062 C15.38932131 -0.05957477 16.88216048 -0.06155942 18.375 -0.0625 C19.43756264 -0.07327827 19.43756264 -0.07327827 20.52159119 -0.08427429 C25.52508288 -0.06085462 25.52508288 -0.06085462 27.75390625 2.16796875 C28.00787354 5.05249023 28.00787354 5.05249023 28.01269531 8.7890625 C28.01619995 9.46889191 28.01970459 10.14872131 28.02331543 10.84915161 C28.03213406 13.10136051 28.0262833 15.35325653 28.01953125 17.60546875 C28.02087787 19.16723694 28.02281837 20.72900473 28.02532959 22.29077148 C28.02828102 25.56595852 28.02398264 28.84103656 28.01464844 32.11621094 C28.00325382 36.31980566 28.0098132 40.523145 28.02179337 44.72673035 C28.02901148 47.95229017 28.02672428 51.1777892 28.02153778 54.40335083 C28.02020115 55.95354238 28.02184949 57.5037394 28.02649689 59.05392456 C28.03156141 61.21839068 28.02385335 63.38244002 28.01269531 65.546875 C28.01110413 66.77994385 28.00951294 68.0130127 28.00787354 69.28344727 C27.75390625 72.16796875 27.75390625 72.16796875 25.75390625 74.16796875 C23.25646763 74.35518727 20.87201942 74.42376642 18.375 74.3984375 C17.64773209 74.39797928 16.92046417 74.39752106 16.17115784 74.39704895 C14.63370126 74.39402711 13.09624773 74.3861428 11.55883789 74.3737793 C9.1973189 74.35551448 6.83619164 74.35326965 4.47460938 74.35351562 C2.98306951 74.34860078 1.49153231 74.34277261 0 74.3359375 C-0.71039932 74.33482468 -1.42079865 74.33371185 -2.15272522 74.33256531 C-7.1300401 74.2840224 -7.1300401 74.2840224 -8.24609375 73.16796875 C-8.34573295 70.93409669 -8.3740917 68.69703016 -8.37548828 66.4609375 C-8.3772406 65.76014069 -8.37899292 65.05934387 -8.38079834 64.33731079 C-8.38521641 62.01000526 -8.38227904 59.68277511 -8.37890625 57.35546875 C-8.3795793 55.74503566 -8.38054934 54.13460266 -8.38180542 52.52416992 C-8.38328233 49.1446842 -8.38112806 45.76522485 -8.37646484 42.38574219 C-8.37076755 38.0442037 -8.3740466 33.70272702 -8.38003731 29.3611908 C-8.38364311 26.03445974 -8.38250425 22.70774345 -8.37990952 19.38101196 C-8.3792403 17.77975457 -8.38006849 16.17849585 -8.38238907 14.57723999 C-8.38491591 12.34312364 -8.3810746 10.10910875 -8.37548828 7.875 C-8.37469269 6.60116455 -8.37389709 5.3273291 -8.37307739 4.01489258 C-8.13072247 -1.41861051 -4.4548613 0.00697843 0 0 Z " fill="#F1BC50" transform="translate(100.24609375,185.83203125)"/>
<path d="M0 0 C6.84373555 3.51963543 10.50728734 8.90983235 13.30859375 15.9375 C16.06132008 25.92072084 14.76517606 36.90193079 10.1875 46.125 C6.27201415 52.30254115 1.36373875 56.42341762 -5.8125 58.125 C-13.51078722 59.06163981 -20.31486136 59.04979988 -26.91796875 54.6640625 C-33.4734775 49.33855642 -38.04064199 42.74045255 -39.04003906 34.17480469 C-39.82952486 23.39509603 -38.67093541 14.96777362 -32.625 5.8125 C-23.12609972 -3.26422694 -11.96524255 -5.38435915 0 0 Z " fill="#FCFCFC" transform="translate(310.8125,333.875)"/>
<path d="M0 0 C4.03240083 2.96091096 7.67993638 6.92237275 9.92578125 11.4140625 C10.9144212 25.17897257 10.9144212 25.17897257 6.92578125 30.4140625 C1.67271243 35.75809355 -2.74651861 39.35881232 -10.38671875 39.7890625 C-16.19800594 39.62495638 -20.59143204 37.73720217 -24.8359375 33.765625 C-29.86883156 28.18435265 -31.57287828 23.49702512 -31.3828125 15.97265625 C-30.67139422 10.07418826 -27.9900144 5.97413761 -23.63671875 2.0390625 C-16.35713123 -3.62454894 -8.18250718 -4.55859117 0 0 Z " fill="#212E30" transform="translate(404.07421875,250.5859375)"/>
</svg>
